<svg height="479pt" viewBox="0 -1 479.99829 479" width="479pt" xmlns="http://www.w3.org/2000/svg"><path d="m433.34375 168.1875-7.386719 11.085938-12.304687-12.300782c-1.984375-1.988281-4.871094-2.789062-7.597656-2.105468l-32 8c-.890626.222656-1.734376.597656-2.496094 1.105468l-22.679688 15.117188-38.480468 7.699218c-1.027344.203126-2 .605469-2.871094 1.183594l-22.242188 14.824219-109.855468 7.832031c-.585938.042969-1.164063.152344-1.726563.316406l-80 24c-.761719.230469-1.484375.570313-2.144531 1.011719l-48 32c-1.835938 1.222657-3.085938 3.15625-3.449219 5.335938l-7.71875 46.308593-31.046875 46.585938c-1.066406 1.597656-1.519531 3.527344-1.28125 5.433594l7.9375 63.503906v23.503906c0 4.417969 3.578125 8 8 8h40c2.570312 0 4.984375-1.238281 6.488281-3.324218 1.503907-2.085938 1.914063-4.765626 1.101563-7.207032l-7.589844-22.765625v-34.402343l20.4375-13.597657c.757812-.519531 1.421875-1.164062 1.960938-1.90625l20.800781-27.75 10.71875 2.679688-5.824219 34.953125c-.375 2.242187.21875 4.539062 1.640625 6.320312l31.113281 38.878906 7.542969 22.648438c1.089844 3.273438 4.15625 5.480469 7.609375 5.472656h40c2.570312 0 4.984375-1.238281 6.488281-3.324218 1.503907-2.085938 1.914063-4.765626 1.101563-7.207032l-8-24c-.230469-.671875-.542969-1.316406-.9375-1.910156l-28.855469-43.289062 14.539063-19.375 23.664062-4.734376 34.589844 6.917969 29.410156 58.808594v14.113281c-.015625 1.234375.257812 2.460938.796875 3.574219l8 16c1.363281 2.726563 4.15625 4.441406 7.203125 4.425781h32c2.570312 0 4.984375-1.238281 6.488281-3.324218 1.503907-2.085938 1.914063-4.765626 1.101563-7.207032l-7.800782-23.40625-7.382812-44.257812 12.929688-19.40625 53.8125-23.0625c1.855468-.796875 3.34375-2.261719 4.160156-4.105469l28.144531-63.328125 16.105469 10.734375c2.6875 1.796875 6.191406 1.796875 8.878906 0l24-16c3.136719-2.09375 4.382812-6.09375 2.992188-9.597656l-15.429688-38.578125v-3.101563l17.597656-3.519531c2.082032-.414062 3.910156-1.640625 5.089844-3.402344l16-24-13.3125-8.878906-14.175781 21.238281-11.199219 2.242188v-19.039063c-.003906-2.125-.84375-4.15625-2.347656-5.65625l-.15625-.160156 9.15625-13.746094zm-256.59375 280 4.152344 12.441406h-23.136719l-6.175781-18.53125c-.300782-.894531-.753906-1.730468-1.34375-2.46875l-29.769532-37.210937 5.027344-30.167969 29.285156 7.320312-9.191406 12.257813c-2.035156 2.714844-2.136718 6.417969-.253906 9.238281zm261.410156-174.617188-14.160156 9.457032-19.5625-13.039063c-1.960938-1.3125-4.402344-1.6875-6.667969-1.03125-2.265625.660157-4.125 2.28125-5.082031 4.4375l-30.722656 69.128907-53.117188 22.769531c-1.425781.609375-2.644531 1.621093-3.503906 2.910156l-16 24c-1.128906 1.695313-1.570312 3.753906-1.234375 5.761719l8 48c.066406.40625.167969.8125.296875 1.207031l4.496094 13.457031h-15.960938l-4.941406-9.890625v-14.109375c.011719-1.238281-.261719-2.464844-.800781-3.578125l-32-64c-1.109375-2.210937-3.175781-3.785156-5.601563-4.261719l-40-8c-1.035156-.21875-2.101562-.21875-3.136718 0l-38.238282 7.636719-62.28125-15.558593c-3.121094-.78125-6.410156.382812-8.34375 2.960937l-23.199218 30.902344-22.839844 15.242187c-2.226563 1.484375-3.5625 3.980469-3.558594 6.65625v40c-.003906.855469.136719 1.710938.40625 2.527344l4.496094 13.472656h-20.902344v-16c0-.332031-.019531-.664062-.066406-.992187l-7.625-61.050781 30.34375-45.519532c.628906-.941406 1.050781-2.003906 1.234375-3.121094l7.429687-44.582031 44.121094-29.417969 78.015625-23.398437 111.113281-7.917969c1.382813-.105468 2.714844-.5625 3.871094-1.328125l22.679688-15.121093 38.480468-7.710938c1.027344-.203125 2-.605469 2.871094-1.1875l22.847656-15.199219 26.257813-6.566406 8.894531 8.894531-32 6.402344 3.136719 15.679688 38.402343-7.679688v31.816406c0 1.015625.191407 2.027344.566407 2.972656zm0 0"/><path d="m423.007812 10.796875 25.671876 8.550781-116.257813 58.121094c-1.550781.773438-2.808594 2.03125-3.582031 3.582031l-35.875 71.746094-96.414063-66.746094c-1.867187-1.292969-4.191406-1.730469-6.398437-1.207031-2.210938.523438-4.089844 1.960938-5.179688 3.953125l-46.796875 85.796875-133.753906 66.832031 7.152344 14.320313 136-68c1.460937-.734375 2.664062-1.894532 3.449219-3.328125l43.734374-80.191407 96.6875 66.9375c1.90625 1.320313 4.292969 1.75 6.542969 1.171876 2.246094-.574219 4.132813-2.097657 5.171875-4.171876l38.796875-77.601562 113.875-56.902344-8.5625 25.65625 20.601563-10.296875 12.128906-36.390625-36.394531-12.128906zm0 0"/></svg>